<?xml version="1.0" encoding="UTF-8"?>
<svg xmlns="http://www.w3.org/2000/svg" xmlns:xlink="http://www.w3.org/1999/xlink" width="667pt" height="668pt" viewBox="0 0 667 668" version="1.1">
<defs>
<g>
<symbol overflow="visible" id="glyph0-0">
<path style="stroke:none;" d="M 0.640625 2.265625 L 0.640625 -9.015625 L 7.03125 -9.015625 L 7.03125 2.265625 Z M 1.359375 1.546875 L 6.328125 1.546875 L 6.328125 -8.296875 L 1.359375 -8.296875 Z M 1.359375 1.546875 "/>
</symbol>
<symbol overflow="visible" id="glyph0-1">
<path style="stroke:none;" d="M 1.375 -1.59375 L 2.6875 -1.59375 L 2.6875 0 L 1.375 0 Z M 1.375 -1.59375 "/>
</symbol>
<symbol overflow="visible" id="glyph0-2">
<path style="stroke:none;" d="M 7.1875 -3.78125 L 7.1875 -3.21875 L 1.90625 -3.21875 C 1.957031 -2.425781 2.195312 -1.820312 2.625 -1.40625 C 3.050781 -1 3.644531 -0.796875 4.40625 -0.796875 C 4.84375 -0.796875 5.269531 -0.847656 5.6875 -0.953125 C 6.101562 -1.066406 6.515625 -1.226562 6.921875 -1.4375 L 6.921875 -0.359375 C 6.515625 -0.179688 6.09375 -0.046875 5.65625 0.046875 C 5.21875 0.140625 4.78125 0.1875 4.34375 0.1875 C 3.21875 0.1875 2.328125 -0.132812 1.671875 -0.78125 C 1.023438 -1.4375 0.703125 -2.320312 0.703125 -3.4375 C 0.703125 -4.582031 1.007812 -5.488281 1.625 -6.15625 C 2.25 -6.832031 3.085938 -7.171875 4.140625 -7.171875 C 5.078125 -7.171875 5.816406 -6.863281 6.359375 -6.25 C 6.910156 -5.644531 7.1875 -4.820312 7.1875 -3.78125 Z M 6.046875 -4.125 C 6.035156 -4.75 5.859375 -5.25 5.515625 -5.625 C 5.171875 -6 4.71875 -6.1875 4.15625 -6.1875 C 3.507812 -6.1875 2.992188 -6.003906 2.609375 -5.640625 C 2.222656 -5.285156 2 -4.78125 1.9375 -4.125 Z M 6.046875 -4.125 "/>
</symbol>
<symbol overflow="visible" id="glyph0-3">
<path style="stroke:none;" d="M 5.265625 -5.921875 C 5.128906 -5.992188 4.984375 -6.046875 4.828125 -6.078125 C 4.679688 -6.117188 4.519531 -6.140625 4.34375 -6.140625 C 3.6875 -6.140625 3.179688 -5.925781 2.828125 -5.5 C 2.484375 -5.082031 2.3125 -4.476562 2.3125 -3.6875 L 2.3125 0 L 1.15625 0 L 1.15625 -7 L 2.3125 -7 L 2.3125 -5.90625 C 2.5625 -6.332031 2.878906 -6.648438 3.265625 -6.859375 C 3.648438 -7.066406 4.117188 -7.171875 4.671875 -7.171875 C 4.753906 -7.171875 4.84375 -7.164062 4.9375 -7.15625 C 5.03125 -7.144531 5.132812 -7.128906 5.25 -7.109375 Z M 5.265625 -5.921875 "/>
</symbol>
<symbol overflow="visible" id="glyph0-4">
<path style="stroke:none;" d="M 1.203125 -9.71875 L 2.359375 -9.71875 L 2.359375 0 L 1.203125 0 Z M 1.203125 -9.71875 "/>
</symbol>
<symbol overflow="visible" id="glyph0-5">
<path style="stroke:none;" d=""/>
</symbol>
<symbol overflow="visible" id="glyph0-6">
<path style="stroke:none;" d="M 5.671875 -6.796875 L 5.671875 -5.703125 C 5.347656 -5.867188 5.007812 -5.992188 4.65625 -6.078125 C 4.300781 -6.160156 3.9375 -6.203125 3.5625 -6.203125 C 3 -6.203125 2.570312 -6.113281 2.28125 -5.9375 C 2 -5.769531 1.859375 -5.507812 1.859375 -5.15625 C 1.859375 -4.882812 1.957031 -4.671875 2.15625 -4.515625 C 2.363281 -4.367188 2.773438 -4.226562 3.390625 -4.09375 L 3.78125 -4 C 4.601562 -3.832031 5.1875 -3.585938 5.53125 -3.265625 C 5.875 -2.941406 6.046875 -2.5 6.046875 -1.9375 C 6.046875 -1.28125 5.785156 -0.757812 5.265625 -0.375 C 4.753906 0 4.050781 0.1875 3.15625 0.1875 C 2.78125 0.1875 2.390625 0.148438 1.984375 0.078125 C 1.578125 0.00390625 1.144531 -0.101562 0.6875 -0.25 L 0.6875 -1.4375 C 1.113281 -1.21875 1.53125 -1.050781 1.9375 -0.9375 C 2.351562 -0.832031 2.765625 -0.78125 3.171875 -0.78125 C 3.710938 -0.78125 4.128906 -0.875 4.421875 -1.0625 C 4.710938 -1.25 4.859375 -1.507812 4.859375 -1.84375 C 4.859375 -2.15625 4.753906 -2.394531 4.546875 -2.5625 C 4.335938 -2.726562 3.875 -2.890625 3.15625 -3.046875 L 2.765625 -3.140625 C 2.046875 -3.285156 1.53125 -3.515625 1.21875 -3.828125 C 0.90625 -4.140625 0.75 -4.566406 0.75 -5.109375 C 0.75 -5.765625 0.976562 -6.269531 1.4375 -6.625 C 1.90625 -6.988281 2.570312 -7.171875 3.4375 -7.171875 C 3.851562 -7.171875 4.25 -7.140625 4.625 -7.078125 C 5 -7.015625 5.347656 -6.921875 5.671875 -6.796875 Z M 5.671875 -6.796875 "/>
</symbol>
<symbol overflow="visible" id="glyph0-7">
<path style="stroke:none;" d="M 3.921875 -6.1875 C 3.304688 -6.1875 2.816406 -5.945312 2.453125 -5.46875 C 2.097656 -4.988281 1.921875 -4.332031 1.921875 -3.5 C 1.921875 -2.65625 2.097656 -1.992188 2.453125 -1.515625 C 2.804688 -1.035156 3.296875 -0.796875 3.921875 -0.796875 C 4.535156 -0.796875 5.019531 -1.035156 5.375 -1.515625 C 5.726562 -2.003906 5.90625 -2.664062 5.90625 -3.5 C 5.90625 -4.320312 5.726562 -4.972656 5.375 -5.453125 C 5.019531 -5.941406 4.535156 -6.1875 3.921875 -6.1875 Z M 3.921875 -7.171875 C 4.921875 -7.171875 5.703125 -6.84375 6.265625 -6.1875 C 6.835938 -5.539062 7.125 -4.644531 7.125 -3.5 C 7.125 -2.351562 6.835938 -1.453125 6.265625 -0.796875 C 5.703125 -0.140625 4.921875 0.1875 3.921875 0.1875 C 2.910156 0.1875 2.117188 -0.140625 1.546875 -0.796875 C 0.984375 -1.453125 0.703125 -2.351562 0.703125 -3.5 C 0.703125 -4.644531 0.984375 -5.539062 1.546875 -6.1875 C 2.117188 -6.84375 2.910156 -7.171875 3.921875 -7.171875 Z M 3.921875 -7.171875 "/>
</symbol>
<symbol overflow="visible" id="glyph0-8">
<path style="stroke:none;" d="M 1.09375 -2.765625 L 1.09375 -7 L 2.234375 -7 L 2.234375 -2.8125 C 2.234375 -2.144531 2.363281 -1.644531 2.625 -1.3125 C 2.882812 -0.976562 3.269531 -0.8125 3.78125 -0.8125 C 4.40625 -0.8125 4.894531 -1.007812 5.25 -1.40625 C 5.613281 -1.800781 5.796875 -2.34375 5.796875 -3.03125 L 5.796875 -7 L 6.953125 -7 L 6.953125 0 L 5.796875 0 L 5.796875 -1.078125 C 5.515625 -0.648438 5.191406 -0.332031 4.828125 -0.125 C 4.460938 0.0820312 4.035156 0.1875 3.546875 0.1875 C 2.742188 0.1875 2.132812 -0.0625 1.71875 -0.5625 C 1.300781 -1.0625 1.09375 -1.796875 1.09375 -2.765625 Z M 3.984375 -7.171875 Z M 3.984375 -7.171875 "/>
</symbol>
<symbol overflow="visible" id="glyph0-9">
<path style="stroke:none;" d="M 6.25 -6.734375 L 6.25 -5.65625 C 5.914062 -5.832031 5.585938 -5.960938 5.265625 -6.046875 C 4.941406 -6.140625 4.613281 -6.1875 4.28125 -6.1875 C 3.53125 -6.1875 2.945312 -5.953125 2.53125 -5.484375 C 2.125 -5.015625 1.921875 -4.351562 1.921875 -3.5 C 1.921875 -2.644531 2.125 -1.976562 2.53125 -1.5 C 2.945312 -1.03125 3.53125 -0.796875 4.28125 -0.796875 C 4.613281 -0.796875 4.941406 -0.835938 5.265625 -0.921875 C 5.585938 -1.015625 5.914062 -1.148438 6.25 -1.328125 L 6.25 -0.265625 C 5.925781 -0.117188 5.59375 -0.0078125 5.25 0.0625 C 4.90625 0.144531 4.539062 0.1875 4.15625 0.1875 C 3.09375 0.1875 2.25 -0.144531 1.625 -0.8125 C 1.007812 -1.476562 0.703125 -2.375 0.703125 -3.5 C 0.703125 -4.632812 1.015625 -5.53125 1.640625 -6.1875 C 2.273438 -6.84375 3.132812 -7.171875 4.21875 -7.171875 C 4.570312 -7.171875 4.914062 -7.132812 5.25 -7.0625 C 5.59375 -6.988281 5.925781 -6.878906 6.25 -6.734375 Z M 6.25 -6.734375 "/>
</symbol>
<symbol overflow="visible" id="glyph0-10">
<path style="stroke:none;" d="M 6.859375 -7 L 6.859375 0 L 5.703125 0 L 5.703125 -6.109375 L 2.546875 -6.109375 L 2.546875 0 L 1.390625 0 L 1.390625 -6.109375 L 0.296875 -6.109375 L 0.296875 -7 L 1.390625 -7 L 1.390625 -7.484375 C 1.390625 -8.242188 1.566406 -8.804688 1.921875 -9.171875 C 2.285156 -9.535156 2.84375 -9.71875 3.59375 -9.71875 L 4.75 -9.71875 L 4.75 -8.765625 L 3.65625 -8.765625 C 3.238281 -8.765625 2.945312 -8.679688 2.78125 -8.515625 C 2.625 -8.347656 2.546875 -8.046875 2.546875 -7.609375 L 2.546875 -7 Z M 5.703125 -9.703125 L 6.859375 -9.703125 L 6.859375 -8.25 L 5.703125 -8.25 Z M 5.703125 -9.703125 "/>
</symbol>
<symbol overflow="visible" id="glyph0-11">
<path style="stroke:none;" d="M 1.09375 -9.71875 L 3.75 -9.71875 L 3.75 -8.828125 L 2.25 -8.828125 L 2.25 0.796875 L 3.75 0.796875 L 3.75 1.6875 L 1.09375 1.6875 Z M 1.09375 -9.71875 "/>
</symbol>
<symbol overflow="visible" id="glyph0-12">
<path style="stroke:none;" d="M 3.890625 -9.71875 L 3.890625 1.6875 L 1.25 1.6875 L 1.25 0.796875 L 2.734375 0.796875 L 2.734375 -8.828125 L 1.25 -8.828125 L 1.25 -9.71875 Z M 3.890625 -9.71875 "/>
</symbol>
<symbol overflow="visible" id="glyph0-13">
<path style="stroke:none;" d="M 1.25 -9.328125 L 7.15625 -9.328125 L 7.15625 -8.265625 L 2.515625 -8.265625 L 2.515625 -5.5 L 6.953125 -5.5 L 6.953125 -4.4375 L 2.515625 -4.4375 L 2.515625 -1.0625 L 7.265625 -1.0625 L 7.265625 0 L 1.25 0 Z M 1.25 -9.328125 "/>
</symbol>
<symbol overflow="visible" id="glyph0-14">
<path style="stroke:none;" d="M 6.84375 -9.015625 L 6.84375 -7.796875 C 6.363281 -8.023438 5.910156 -8.191406 5.484375 -8.296875 C 5.066406 -8.410156 4.660156 -8.46875 4.265625 -8.46875 C 3.578125 -8.46875 3.046875 -8.332031 2.671875 -8.0625 C 2.296875 -7.800781 2.109375 -7.425781 2.109375 -6.9375 C 2.109375 -6.519531 2.234375 -6.207031 2.484375 -6 C 2.734375 -5.789062 3.203125 -5.625 3.890625 -5.5 L 4.65625 -5.34375 C 5.59375 -5.15625 6.285156 -4.835938 6.734375 -4.390625 C 7.179688 -3.941406 7.40625 -3.335938 7.40625 -2.578125 C 7.40625 -1.671875 7.101562 -0.984375 6.5 -0.515625 C 5.894531 -0.046875 5.007812 0.1875 3.84375 0.1875 C 3.394531 0.1875 2.921875 0.132812 2.421875 0.03125 C 1.929688 -0.0703125 1.414062 -0.21875 0.875 -0.40625 L 0.875 -1.71875 C 1.394531 -1.425781 1.898438 -1.207031 2.390625 -1.0625 C 2.878906 -0.914062 3.363281 -0.84375 3.84375 -0.84375 C 4.5625 -0.84375 5.113281 -0.984375 5.5 -1.265625 C 5.894531 -1.546875 6.09375 -1.953125 6.09375 -2.484375 C 6.09375 -2.941406 5.953125 -3.296875 5.671875 -3.546875 C 5.390625 -3.804688 4.925781 -4.003906 4.28125 -4.140625 L 3.515625 -4.28125 C 2.578125 -4.46875 1.894531 -4.757812 1.46875 -5.15625 C 1.050781 -5.5625 0.84375 -6.117188 0.84375 -6.828125 C 0.84375 -7.660156 1.132812 -8.3125 1.71875 -8.78125 C 2.300781 -9.257812 3.101562 -9.5 4.125 -9.5 C 4.5625 -9.5 5.003906 -9.457031 5.453125 -9.375 C 5.910156 -9.300781 6.375 -9.179688 6.84375 -9.015625 Z M 6.84375 -9.015625 "/>
</symbol>
<symbol overflow="visible" id="glyph0-15">
<path style="stroke:none;" d="M 8.234375 -8.609375 L 8.234375 -7.28125 C 7.816406 -7.675781 7.363281 -7.96875 6.875 -8.15625 C 6.394531 -8.351562 5.882812 -8.453125 5.34375 -8.453125 C 4.28125 -8.453125 3.460938 -8.125 2.890625 -7.46875 C 2.328125 -6.820312 2.046875 -5.882812 2.046875 -4.65625 C 2.046875 -3.425781 2.328125 -2.484375 2.890625 -1.828125 C 3.460938 -1.179688 4.28125 -0.859375 5.34375 -0.859375 C 5.882812 -0.859375 6.394531 -0.953125 6.875 -1.140625 C 7.363281 -1.335938 7.816406 -1.632812 8.234375 -2.03125 L 8.234375 -0.71875 C 7.796875 -0.414062 7.328125 -0.1875 6.828125 -0.03125 C 6.335938 0.113281 5.820312 0.1875 5.28125 0.1875 C 3.863281 0.1875 2.75 -0.242188 1.9375 -1.109375 C 1.125 -1.972656 0.71875 -3.15625 0.71875 -4.65625 C 0.71875 -6.15625 1.125 -7.335938 1.9375 -8.203125 C 2.75 -9.066406 3.863281 -9.5 5.28125 -9.5 C 5.832031 -9.5 6.351562 -9.421875 6.84375 -9.265625 C 7.34375 -9.117188 7.804688 -8.898438 8.234375 -8.609375 Z M 8.234375 -8.609375 "/>
</symbol>
<symbol overflow="visible" id="glyph0-16">
<path style="stroke:none;" d="M 7.015625 -4.21875 L 7.015625 0 L 5.875 0 L 5.875 -4.1875 C 5.875 -4.851562 5.742188 -5.347656 5.484375 -5.671875 C 5.222656 -6.003906 4.835938 -6.171875 4.328125 -6.171875 C 3.703125 -6.171875 3.207031 -5.972656 2.84375 -5.578125 C 2.488281 -5.179688 2.3125 -4.640625 2.3125 -3.953125 L 2.3125 0 L 1.15625 0 L 1.15625 -9.71875 L 2.3125 -9.71875 L 2.3125 -5.90625 C 2.59375 -6.332031 2.914062 -6.648438 3.28125 -6.859375 C 3.65625 -7.066406 4.085938 -7.171875 4.578125 -7.171875 C 5.378906 -7.171875 5.984375 -6.921875 6.390625 -6.421875 C 6.804688 -5.921875 7.015625 -5.1875 7.015625 -4.21875 Z M 7.015625 -4.21875 "/>
</symbol>
<symbol overflow="visible" id="glyph0-17">
<path style="stroke:none;" d="M 4.390625 -3.515625 C 3.460938 -3.515625 2.816406 -3.40625 2.453125 -3.1875 C 2.097656 -2.976562 1.921875 -2.617188 1.921875 -2.109375 C 1.921875 -1.703125 2.050781 -1.378906 2.3125 -1.140625 C 2.582031 -0.898438 2.953125 -0.78125 3.421875 -0.78125 C 4.054688 -0.78125 4.566406 -1.003906 4.953125 -1.453125 C 5.335938 -1.910156 5.53125 -2.515625 5.53125 -3.265625 L 5.53125 -3.515625 Z M 6.671875 -4 L 6.671875 0 L 5.53125 0 L 5.53125 -1.0625 C 5.269531 -0.632812 4.941406 -0.316406 4.546875 -0.109375 C 4.160156 0.0859375 3.679688 0.1875 3.109375 0.1875 C 2.390625 0.1875 1.816406 -0.015625 1.390625 -0.421875 C 0.972656 -0.828125 0.765625 -1.363281 0.765625 -2.03125 C 0.765625 -2.820312 1.023438 -3.414062 1.546875 -3.8125 C 2.078125 -4.21875 2.867188 -4.421875 3.921875 -4.421875 L 5.53125 -4.421875 L 5.53125 -4.53125 C 5.53125 -5.0625 5.351562 -5.46875 5 -5.75 C 4.65625 -6.039062 4.171875 -6.1875 3.546875 -6.1875 C 3.140625 -6.1875 2.75 -6.140625 2.375 -6.046875 C 2 -5.953125 1.632812 -5.8125 1.28125 -5.625 L 1.28125 -6.671875 C 1.695312 -6.835938 2.101562 -6.960938 2.5 -7.046875 C 2.894531 -7.128906 3.28125 -7.171875 3.65625 -7.171875 C 4.675781 -7.171875 5.429688 -6.90625 5.921875 -6.375 C 6.421875 -5.851562 6.671875 -5.0625 6.671875 -4 Z M 6.671875 -4 "/>
</symbol>
<symbol overflow="visible" id="glyph0-18">
<path style="stroke:none;" d="M 2.34375 -8.984375 L 2.34375 -7 L 4.71875 -7 L 4.71875 -6.109375 L 2.34375 -6.109375 L 2.34375 -2.3125 C 2.34375 -1.738281 2.421875 -1.367188 2.578125 -1.203125 C 2.734375 -1.046875 3.050781 -0.96875 3.53125 -0.96875 L 4.71875 -0.96875 L 4.71875 0 L 3.53125 0 C 2.644531 0 2.03125 -0.164062 1.6875 -0.5 C 1.351562 -0.832031 1.1875 -1.4375 1.1875 -2.3125 L 1.1875 -6.109375 L 0.34375 -6.109375 L 0.34375 -7 L 1.1875 -7 L 1.1875 -8.984375 Z M 2.34375 -8.984375 "/>
</symbol>
<symbol overflow="visible" id="glyph0-19">
<path style="stroke:none;" d="M 1.203125 -7 L 2.359375 -7 L 2.359375 0 L 1.203125 0 Z M 1.203125 -9.71875 L 2.359375 -9.71875 L 2.359375 -8.265625 L 1.203125 -8.265625 Z M 1.203125 -9.71875 "/>
</symbol>
<symbol overflow="visible" id="glyph0-20">
<path style="stroke:none;" d="M 7.015625 -4.21875 L 7.015625 0 L 5.875 0 L 5.875 -4.1875 C 5.875 -4.851562 5.742188 -5.347656 5.484375 -5.671875 C 5.222656 -6.003906 4.835938 -6.171875 4.328125 -6.171875 C 3.703125 -6.171875 3.207031 -5.972656 2.84375 -5.578125 C 2.488281 -5.179688 2.3125 -4.640625 2.3125 -3.953125 L 2.3125 0 L 1.15625 0 L 1.15625 -7 L 2.3125 -7 L 2.3125 -5.90625 C 2.59375 -6.332031 2.914062 -6.648438 3.28125 -6.859375 C 3.65625 -7.066406 4.085938 -7.171875 4.578125 -7.171875 C 5.378906 -7.171875 5.984375 -6.921875 6.390625 -6.421875 C 6.804688 -5.921875 7.015625 -5.1875 7.015625 -4.21875 Z M 7.015625 -4.21875 "/>
</symbol>
<symbol overflow="visible" id="glyph0-21">
<path style="stroke:none;" d="M 3.65625 -9.71875 L 6.859375 -9.71875 L 6.859375 0 L 5.703125 0 L 5.703125 -8.765625 L 3.65625 -8.765625 C 3.238281 -8.765625 2.945312 -8.679688 2.78125 -8.515625 C 2.625 -8.347656 2.546875 -8.046875 2.546875 -7.609375 L 2.546875 -7 L 4.4375 -7 L 4.4375 -6.109375 L 2.546875 -6.109375 L 2.546875 0 L 1.390625 0 L 1.390625 -6.109375 L 0.296875 -6.109375 L 0.296875 -7 L 1.390625 -7 L 1.390625 -7.484375 C 1.390625 -8.265625 1.570312 -8.832031 1.9375 -9.1875 C 2.300781 -9.539062 2.875 -9.71875 3.65625 -9.71875 Z M 3.65625 -9.71875 "/>
</symbol>
<symbol overflow="visible" id="glyph0-22">
<path style="stroke:none;" d="M 1.15625 -9.71875 L 2.3125 -9.71875 L 2.3125 -3.984375 L 5.75 -7 L 7.21875 -7 L 3.5 -3.71875 L 7.375 0 L 5.875 0 L 2.3125 -3.421875 L 2.3125 0 L 1.15625 0 Z M 1.15625 -9.71875 "/>
</symbol>
<symbol overflow="visible" id="glyph0-23">
<path style="stroke:none;" d="M 1.5 -1.59375 L 2.8125 -1.59375 L 2.8125 0 L 1.5 0 Z M 1.5 -6.609375 L 2.8125 -6.609375 L 2.8125 -5.03125 L 1.5 -5.03125 Z M 1.5 -6.609375 "/>
</symbol>
<symbol overflow="visible" id="glyph0-24">
<path style="stroke:none;" d="M 2.3125 -1.046875 L 2.3125 2.65625 L 1.15625 2.65625 L 1.15625 -7 L 2.3125 -7 L 2.3125 -5.9375 C 2.5625 -6.351562 2.867188 -6.660156 3.234375 -6.859375 C 3.597656 -7.066406 4.039062 -7.171875 4.5625 -7.171875 C 5.40625 -7.171875 6.09375 -6.832031 6.625 -6.15625 C 7.15625 -5.476562 7.421875 -4.59375 7.421875 -3.5 C 7.421875 -2.394531 7.15625 -1.503906 6.625 -0.828125 C 6.09375 -0.148438 5.40625 0.1875 4.5625 0.1875 C 4.039062 0.1875 3.597656 0.0859375 3.234375 -0.109375 C 2.867188 -0.316406 2.5625 -0.628906 2.3125 -1.046875 Z M 6.234375 -3.5 C 6.234375 -4.34375 6.054688 -5.003906 5.703125 -5.484375 C 5.359375 -5.960938 4.882812 -6.203125 4.28125 -6.203125 C 3.664062 -6.203125 3.179688 -5.960938 2.828125 -5.484375 C 2.484375 -5.003906 2.3125 -4.34375 2.3125 -3.5 C 2.3125 -2.644531 2.484375 -1.976562 2.828125 -1.5 C 3.179688 -1.019531 3.664062 -0.78125 4.28125 -0.78125 C 4.882812 -0.78125 5.359375 -1.019531 5.703125 -1.5 C 6.054688 -1.976562 6.234375 -2.644531 6.234375 -3.5 Z M 6.234375 -3.5 "/>
</symbol>
<symbol overflow="visible" id="glyph0-25">
<path style="stroke:none;" d="M 6.65625 -5.65625 C 6.9375 -6.164062 7.273438 -6.546875 7.671875 -6.796875 C 8.078125 -7.046875 8.550781 -7.171875 9.09375 -7.171875 C 9.820312 -7.171875 10.382812 -6.914062 10.78125 -6.40625 C 11.175781 -5.894531 11.375 -5.164062 11.375 -4.21875 L 11.375 0 L 10.21875 0 L 10.21875 -4.1875 C 10.21875 -4.851562 10.097656 -5.347656 9.859375 -5.671875 C 9.628906 -6.003906 9.269531 -6.171875 8.78125 -6.171875 C 8.1875 -6.171875 7.710938 -5.972656 7.359375 -5.578125 C 7.015625 -5.179688 6.84375 -4.640625 6.84375 -3.953125 L 6.84375 0 L 5.6875 0 L 5.6875 -4.1875 C 5.6875 -4.863281 5.566406 -5.363281 5.328125 -5.6875 C 5.097656 -6.007812 4.734375 -6.171875 4.234375 -6.171875 C 3.648438 -6.171875 3.179688 -5.96875 2.828125 -5.5625 C 2.484375 -5.164062 2.3125 -4.628906 2.3125 -3.953125 L 2.3125 0 L 1.15625 0 L 1.15625 -7 L 2.3125 -7 L 2.3125 -5.90625 C 2.582031 -6.332031 2.898438 -6.648438 3.265625 -6.859375 C 3.628906 -7.066406 4.0625 -7.171875 4.5625 -7.171875 C 5.070312 -7.171875 5.503906 -7.039062 5.859375 -6.78125 C 6.222656 -6.519531 6.488281 -6.144531 6.65625 -5.65625 Z M 6.65625 -5.65625 "/>
</symbol>
<symbol overflow="visible" id="glyph0-26">
<path style="stroke:none;" d="M 5.8125 -3.578125 C 5.8125 -4.410156 5.640625 -5.054688 5.296875 -5.515625 C 4.953125 -5.972656 4.46875 -6.203125 3.84375 -6.203125 C 3.226562 -6.203125 2.75 -5.972656 2.40625 -5.515625 C 2.0625 -5.054688 1.890625 -4.410156 1.890625 -3.578125 C 1.890625 -2.753906 2.0625 -2.113281 2.40625 -1.65625 C 2.75 -1.195312 3.226562 -0.96875 3.84375 -0.96875 C 4.46875 -0.96875 4.953125 -1.195312 5.296875 -1.65625 C 5.640625 -2.113281 5.8125 -2.753906 5.8125 -3.578125 Z M 6.953125 -0.875 C 6.953125 0.320312 6.6875 1.207031 6.15625 1.78125 C 5.632812 2.363281 4.828125 2.65625 3.734375 2.65625 C 3.328125 2.65625 2.945312 2.625 2.59375 2.5625 C 2.238281 2.507812 1.890625 2.421875 1.546875 2.296875 L 1.546875 1.171875 C 1.890625 1.359375 2.222656 1.492188 2.546875 1.578125 C 2.878906 1.671875 3.21875 1.71875 3.5625 1.71875 C 4.3125 1.71875 4.875 1.519531 5.25 1.125 C 5.625 0.726562 5.8125 0.132812 5.8125 -0.65625 L 5.8125 -1.234375 C 5.570312 -0.816406 5.265625 -0.503906 4.890625 -0.296875 C 4.523438 -0.0976562 4.082031 0 3.5625 0 C 2.707031 0 2.015625 -0.328125 1.484375 -0.984375 C 0.960938 -1.640625 0.703125 -2.503906 0.703125 -3.578125 C 0.703125 -4.660156 0.960938 -5.53125 1.484375 -6.1875 C 2.015625 -6.84375 2.707031 -7.171875 3.5625 -7.171875 C 4.082031 -7.171875 4.523438 -7.066406 4.890625 -6.859375 C 5.265625 -6.648438 5.570312 -6.34375 5.8125 -5.9375 L 5.8125 -7 L 6.953125 -7 Z M 6.953125 -0.875 "/>
</symbol>
<symbol overflow="visible" id="glyph0-27">
<path style="stroke:none;" d="M 5.8125 -5.9375 L 5.8125 -9.71875 L 6.953125 -9.71875 L 6.953125 0 L 5.8125 0 L 5.8125 -1.046875 C 5.570312 -0.628906 5.265625 -0.316406 4.890625 -0.109375 C 4.523438 0.0859375 4.082031 0.1875 3.5625 0.1875 C 2.71875 0.1875 2.03125 -0.148438 1.5 -0.828125 C 0.96875 -1.503906 0.703125 -2.394531 0.703125 -3.5 C 0.703125 -4.59375 0.96875 -5.476562 1.5 -6.15625 C 2.03125 -6.832031 2.71875 -7.171875 3.5625 -7.171875 C 4.082031 -7.171875 4.523438 -7.066406 4.890625 -6.859375 C 5.265625 -6.660156 5.570312 -6.351562 5.8125 -5.9375 Z M 1.890625 -3.5 C 1.890625 -2.644531 2.0625 -1.976562 2.40625 -1.5 C 2.757812 -1.019531 3.238281 -0.78125 3.84375 -0.78125 C 4.457031 -0.78125 4.9375 -1.019531 5.28125 -1.5 C 5.632812 -1.976562 5.8125 -2.644531 5.8125 -3.5 C 5.8125 -4.34375 5.632812 -5.003906 5.28125 -5.484375 C 4.9375 -5.960938 4.457031 -6.203125 3.84375 -6.203125 C 3.238281 -6.203125 2.757812 -5.960938 2.40625 -5.484375 C 2.0625 -5.003906 1.890625 -4.34375 1.890625 -3.5 Z M 1.890625 -3.5 "/>
</symbol>
<symbol overflow="visible" id="glyph0-28">
<path style="stroke:none;" d="M 2.296875 -9.328125 L 2.296875 -5.859375 L 1.234375 -5.859375 L 1.234375 -9.328125 Z M 2.296875 -9.328125 "/>
</symbol>
<symbol overflow="visible" id="glyph0-29">
<path style="stroke:none;" d="M 1.890625 -3.5 C 1.890625 -2.644531 2.0625 -1.976562 2.40625 -1.5 C 2.757812 -1.019531 3.238281 -0.78125 3.84375 -0.78125 C 4.457031 -0.78125 4.9375 -1.019531 5.28125 -1.5 C 5.632812 -1.976562 5.8125 -2.644531 5.8125 -3.5 C 5.8125 -4.34375 5.632812 -5.003906 5.28125 -5.484375 C 4.9375 -5.960938 4.457031 -6.203125 3.84375 -6.203125 C 3.238281 -6.203125 2.757812 -5.960938 2.40625 -5.484375 C 2.0625 -5.003906 1.890625 -4.34375 1.890625 -3.5 Z M 5.8125 -1.046875 C 5.570312 -0.628906 5.265625 -0.316406 4.890625 -0.109375 C 4.523438 0.0859375 4.082031 0.1875 3.5625 0.1875 C 2.71875 0.1875 2.03125 -0.148438 1.5 -0.828125 C 0.96875 -1.503906 0.703125 -2.394531 0.703125 -3.5 C 0.703125 -4.59375 0.96875 -5.476562 1.5 -6.15625 C 2.03125 -6.832031 2.71875 -7.171875 3.5625 -7.171875 C 4.082031 -7.171875 4.523438 -7.066406 4.890625 -6.859375 C 5.265625 -6.660156 5.570312 -6.351562 5.8125 -5.9375 L 5.8125 -7 L 6.953125 -7 L 6.953125 2.65625 L 5.8125 2.65625 Z M 5.8125 -1.046875 "/>
</symbol>
<symbol overflow="visible" id="glyph0-30">
<path style="stroke:none;" d="M 0.375 -7 L 1.59375 -7 L 3.78125 -1.125 L 5.96875 -7 L 7.1875 -7 L 4.5625 0 L 3 0 Z M 0.375 -7 "/>
</symbol>
<symbol overflow="visible" id="glyph0-31">
<path style="stroke:none;" d="M 0.625 -4.015625 L 4 -4.015625 L 4 -3 L 0.625 -3 Z M 0.625 -4.015625 "/>
</symbol>
<symbol overflow="visible" id="glyph0-32">
<path style="stroke:none;" d="M -0.03125 -9.328125 L 7.859375 -9.328125 L 7.859375 -8.265625 L 4.546875 -8.265625 L 4.546875 0 L 3.28125 0 L 3.28125 -8.265625 L -0.03125 -8.265625 Z M -0.03125 -9.328125 "/>
</symbol>
<symbol overflow="visible" id="glyph0-33">
<path style="stroke:none;" d="M 4.125 0.65625 C 3.789062 1.488281 3.46875 2.03125 3.15625 2.28125 C 2.851562 2.53125 2.445312 2.65625 1.9375 2.65625 L 1.015625 2.65625 L 1.015625 1.703125 L 1.6875 1.703125 C 2 1.703125 2.242188 1.625 2.421875 1.46875 C 2.597656 1.320312 2.789062 0.96875 3 0.40625 L 3.21875 -0.109375 L 0.375 -7 L 1.59375 -7 L 3.78125 -1.53125 L 5.96875 -7 L 7.1875 -7 Z M 4.125 0.65625 "/>
</symbol>
<symbol overflow="visible" id="glyph0-34">
<path style="stroke:none;" d="M 1.5 -1.59375 L 2.8125 -1.59375 L 2.8125 -0.515625 L 1.796875 1.484375 L 0.984375 1.484375 L 1.5 -0.515625 Z M 1.5 -1.59375 "/>
</symbol>
<symbol overflow="visible" id="glyph0-35">
<path style="stroke:none;" d="M 6.234375 -3.5 C 6.234375 -4.34375 6.054688 -5.003906 5.703125 -5.484375 C 5.359375 -5.960938 4.882812 -6.203125 4.28125 -6.203125 C 3.664062 -6.203125 3.179688 -5.960938 2.828125 -5.484375 C 2.484375 -5.003906 2.3125 -4.34375 2.3125 -3.5 C 2.3125 -2.644531 2.484375 -1.976562 2.828125 -1.5 C 3.179688 -1.019531 3.664062 -0.78125 4.28125 -0.78125 C 4.882812 -0.78125 5.359375 -1.019531 5.703125 -1.5 C 6.054688 -1.976562 6.234375 -2.644531 6.234375 -3.5 Z M 2.3125 -5.9375 C 2.5625 -6.351562 2.867188 -6.660156 3.234375 -6.859375 C 3.597656 -7.066406 4.039062 -7.171875 4.5625 -7.171875 C 5.40625 -7.171875 6.09375 -6.832031 6.625 -6.15625 C 7.15625 -5.476562 7.421875 -4.59375 7.421875 -3.5 C 7.421875 -2.394531 7.15625 -1.503906 6.625 -0.828125 C 6.09375 -0.148438 5.40625 0.1875 4.5625 0.1875 C 4.039062 0.1875 3.597656 0.0859375 3.234375 -0.109375 C 2.867188 -0.316406 2.5625 -0.628906 2.3125 -1.046875 L 2.3125 0 L 1.15625 0 L 1.15625 -9.71875 L 2.3125 -9.71875 Z M 2.3125 -5.9375 "/>
</symbol>
<symbol overflow="visible" id="glyph0-36">
<path style="stroke:none;" d="M 9.0625 -9.71875 L 9.0625 -8.765625 L 7.953125 -8.765625 C 7.546875 -8.765625 7.257812 -8.679688 7.09375 -8.515625 C 6.9375 -8.347656 6.859375 -8.046875 6.859375 -7.609375 L 6.859375 -7 L 8.75 -7 L 8.75 -6.109375 L 6.859375 -6.109375 L 6.859375 0 L 5.703125 0 L 5.703125 -6.109375 L 2.546875 -6.109375 L 2.546875 0 L 1.390625 0 L 1.390625 -6.109375 L 0.296875 -6.109375 L 0.296875 -7 L 1.390625 -7 L 1.390625 -7.484375 C 1.390625 -8.265625 1.570312 -8.832031 1.9375 -9.1875 C 2.300781 -9.539062 2.875 -9.71875 3.65625 -9.71875 L 4.75 -9.71875 L 4.75 -8.765625 L 3.65625 -8.765625 C 3.238281 -8.765625 2.945312 -8.679688 2.78125 -8.515625 C 2.625 -8.347656 2.546875 -8.046875 2.546875 -7.609375 L 2.546875 -7 L 5.703125 -7 L 5.703125 -7.484375 C 5.703125 -8.265625 5.882812 -8.832031 6.25 -9.1875 C 6.613281 -9.539062 7.1875 -9.71875 7.96875 -9.71875 Z M 9.0625 -9.71875 "/>
</symbol>
<symbol overflow="visible" id="glyph0-37">
<path style="stroke:none;" d="M 2.296875 -9.328125 L 2.296875 -5.859375 L 1.234375 -5.859375 L 1.234375 -9.328125 Z M 4.65625 -9.328125 L 4.65625 -5.859375 L 3.59375 -5.859375 L 3.59375 -9.328125 Z M 4.65625 -9.328125 "/>
</symbol>
<symbol overflow="visible" id="glyph0-38">
<path style="stroke:none;" d="M 9.359375 -6.296875 L 2.921875 -4 L 9.359375 -1.71875 L 9.359375 -0.59375 L 1.359375 -3.5 L 1.359375 -4.53125 L 9.359375 -7.4375 Z M 9.359375 -6.296875 "/>
</symbol>
<symbol overflow="visible" id="glyph0-39">
<path style="stroke:none;" d="M 1.359375 -6.296875 L 1.359375 -7.4375 L 9.359375 -4.53125 L 9.359375 -3.5 L 1.359375 -0.59375 L 1.359375 -1.71875 L 7.796875 -4 Z M 1.359375 -6.296875 "/>
</symbol>
<symbol overflow="visible" id="glyph0-40">
<path style="stroke:none;" d="M 7.015625 -7 L 4.5 -3.59375 L 7.15625 0 L 5.796875 0 L 3.765625 -2.75 L 1.71875 0 L 0.375 0 L 3.09375 -3.65625 L 0.59375 -7 L 1.953125 -7 L 3.8125 -4.5 L 5.671875 -7 Z M 7.015625 -7 "/>
</symbol>
<symbol overflow="visible" id="glyph0-41">
<path style="stroke:none;" d="M 1.203125 -7 L 2.359375 -7 L 2.359375 0.125 C 2.359375 1.019531 2.1875 1.664062 1.84375 2.0625 C 1.507812 2.457031 0.960938 2.65625 0.203125 2.65625 L -0.234375 2.65625 L -0.234375 1.6875 L 0.078125 1.6875 C 0.515625 1.6875 0.8125 1.582031 0.96875 1.375 C 1.125 1.175781 1.203125 0.757812 1.203125 0.125 Z M 1.203125 -9.71875 L 2.359375 -9.71875 L 2.359375 -8.265625 L 1.203125 -8.265625 Z M 1.203125 -9.71875 "/>
</symbol>
<symbol overflow="visible" id="glyph0-42">
<path style="stroke:none;" d="M 2.515625 -8.296875 L 2.515625 -4.78125 L 4.109375 -4.78125 C 4.691406 -4.78125 5.144531 -4.929688 5.46875 -5.234375 C 5.789062 -5.546875 5.953125 -5.984375 5.953125 -6.546875 C 5.953125 -7.097656 5.789062 -7.523438 5.46875 -7.828125 C 5.144531 -8.140625 4.691406 -8.296875 4.109375 -8.296875 Z M 1.25 -9.328125 L 4.109375 -9.328125 C 5.148438 -9.328125 5.9375 -9.085938 6.46875 -8.609375 C 7.007812 -8.140625 7.28125 -7.453125 7.28125 -6.546875 C 7.28125 -5.617188 7.007812 -4.921875 6.46875 -4.453125 C 5.9375 -3.984375 5.148438 -3.75 4.109375 -3.75 L 2.515625 -3.75 L 2.515625 0 L 1.25 0 Z M 1.25 -9.328125 "/>
</symbol>
<symbol overflow="visible" id="glyph0-43">
<path style="stroke:none;" d="M 4.375 -8.078125 L 2.65625 -3.4375 L 6.09375 -3.4375 Z M 3.65625 -9.328125 L 5.09375 -9.328125 L 8.640625 0 L 7.328125 0 L 6.484375 -2.390625 L 2.28125 -2.390625 L 1.4375 0 L 0.09375 0 Z M 3.65625 -9.328125 "/>
</symbol>
</g>
</defs>
<g id="surface44019">
<rect x="0" y="0" width="667" height="668" style="fill:rgb(49.803922%,49.803922%,49.803922%);fill-opacity:1;stroke:none;"/>
<path style="fill-rule:evenodd;fill:rgb(0%,50.196081%,0%);fill-opacity:1;stroke-width:0.1;stroke-linecap:butt;stroke-linejoin:miter;stroke:rgb(0%,0%,0%);stroke-opacity:1;stroke-miterlimit:10;" d="M 22.202589 38.853761 L 36.08501 38.853761 L 36.08501 51.641261 L 22.202589 51.641261 Z M 22.202589 38.853761 " transform="matrix(20,0,0,20,-56.465833,-365.876)"/>
<path style="fill-rule:evenodd;fill:rgb(64.313728%,64.313728%,64.313728%);fill-opacity:1;stroke-width:0.1;stroke-linecap:butt;stroke-linejoin:miter;stroke:rgb(0%,0%,0%);stroke-opacity:1;stroke-miterlimit:10;" d="M 26.292432 18.3938 L 31.937354 18.3938 L 31.937354 20.2938 L 26.292432 20.2938 Z M 26.292432 18.3938 " transform="matrix(20,0,0,20,-56.465833,-365.876)"/>
<g style="fill:rgb(0%,0%,0%);fill-opacity:1;">
  <use xlink:href="#glyph0-1" x="480.421875" y="24.88878"/>
  <use xlink:href="#glyph0-2" x="484.588542" y="24.88878"/>
  <use xlink:href="#glyph0-3" x="492.366319" y="24.88878"/>
  <use xlink:href="#glyph0-4" x="497.644097" y="24.88878"/>
  <use xlink:href="#glyph0-5" x="501.255208" y="24.88878"/>
  <use xlink:href="#glyph0-6" x="505.421875" y="24.88878"/>
  <use xlink:href="#glyph0-7" x="512.088542" y="24.88878"/>
  <use xlink:href="#glyph0-8" x="519.866319" y="24.88878"/>
  <use xlink:href="#glyph0-3" x="527.921875" y="24.88878"/>
  <use xlink:href="#glyph0-9" x="532.921875" y="24.88878"/>
  <use xlink:href="#glyph0-2" x="539.866319" y="24.88878"/>
  <use xlink:href="#glyph0-5" x="547.644097" y="24.88878"/>
  <use xlink:href="#glyph0-10" x="551.810764" y="24.88878"/>
  <use xlink:href="#glyph0-4" x="559.866319" y="24.88878"/>
  <use xlink:href="#glyph0-2" x="563.477431" y="24.88878"/>
</g>
<path style="fill-rule:evenodd;fill:rgb(64.313728%,64.313728%,64.313728%);fill-opacity:1;stroke-width:0.1;stroke-linecap:butt;stroke-linejoin:miter;stroke:rgb(0%,0%,0%);stroke-opacity:1;stroke-miterlimit:10;" d="M 25.215479 23.320363 L 32.995557 23.320363 L 32.995557 25.220363 L 25.215479 25.220363 Z M 25.215479 23.320363 " transform="matrix(20,0,0,20,-56.465833,-365.876)"/>
<g style="fill:rgb(0%,0%,0%);fill-opacity:1;">
  <use xlink:href="#glyph0-11" x="459.121094" y="123.416124"/>
  <use xlink:href="#glyph0-12" x="464.121094" y="123.416124"/>
  <use xlink:href="#glyph0-13" x="469.121094" y="123.416124"/>
  <use xlink:href="#glyph0-3" x="477.176649" y="123.416124"/>
  <use xlink:href="#glyph0-4" x="482.454427" y="123.416124"/>
  <use xlink:href="#glyph0-14" x="486.065538" y="123.416124"/>
  <use xlink:href="#glyph0-3" x="494.121094" y="123.416124"/>
  <use xlink:href="#glyph0-9" x="499.121094" y="123.416124"/>
  <use xlink:href="#glyph0-15" x="506.065538" y="123.416124"/>
  <use xlink:href="#glyph0-16" x="514.954427" y="123.416124"/>
  <use xlink:href="#glyph0-17" x="523.009983" y="123.416124"/>
  <use xlink:href="#glyph0-3" x="530.78776" y="123.416124"/>
  <use xlink:href="#glyph0-5" x="536.065538" y="123.416124"/>
  <use xlink:href="#glyph0-9" x="540.232205" y="123.416124"/>
  <use xlink:href="#glyph0-3" x="547.176649" y="123.416124"/>
  <use xlink:href="#glyph0-2" x="552.176649" y="123.416124"/>
  <use xlink:href="#glyph0-17" x="559.954427" y="123.416124"/>
  <use xlink:href="#glyph0-18" x="567.732205" y="123.416124"/>
  <use xlink:href="#glyph0-19" x="572.732205" y="123.416124"/>
  <use xlink:href="#glyph0-7" x="576.343316" y="123.416124"/>
  <use xlink:href="#glyph0-20" x="584.121094" y="123.416124"/>
</g>
<path style="fill-rule:evenodd;fill:rgb(64.313728%,64.313728%,64.313728%);fill-opacity:1;stroke-width:0.1;stroke-linecap:butt;stroke-linejoin:miter;stroke:rgb(0%,0%,0%);stroke-opacity:1;stroke-miterlimit:10;" d="M 2.923292 21.014113 L 17.675831 21.014113 L 17.675831 35.714113 L 2.923292 35.714113 Z M 2.923292 21.014113 " transform="matrix(20,0,0,20,-56.465833,-365.876)"/>
<g style="fill:rgb(0%,0%,0%);fill-opacity:1;">
  <use xlink:href="#glyph0-21" x="69.679688" y="85.291124"/>
  <use xlink:href="#glyph0-17" x="77.735243" y="85.291124"/>
  <use xlink:href="#glyph0-18" x="85.513021" y="85.291124"/>
  <use xlink:href="#glyph0-5" x="90.513021" y="85.291124"/>
  <use xlink:href="#glyph0-18" x="94.679688" y="85.291124"/>
  <use xlink:href="#glyph0-7" x="99.679688" y="85.291124"/>
  <use xlink:href="#glyph0-22" x="107.457465" y="85.291124"/>
  <use xlink:href="#glyph0-2" x="114.40191" y="85.291124"/>
  <use xlink:href="#glyph0-20" x="122.179688" y="85.291124"/>
  <use xlink:href="#glyph0-5" x="130.235243" y="85.291124"/>
  <use xlink:href="#glyph0-9" x="134.40191" y="85.291124"/>
  <use xlink:href="#glyph0-16" x="141.346354" y="85.291124"/>
  <use xlink:href="#glyph0-17" x="149.40191" y="85.291124"/>
  <use xlink:href="#glyph0-19" x="157.179688" y="85.291124"/>
  <use xlink:href="#glyph0-20" x="160.790799" y="85.291124"/>
  <use xlink:href="#glyph0-5" x="168.846354" y="85.291124"/>
  <use xlink:href="#glyph0-9" x="173.013021" y="85.291124"/>
  <use xlink:href="#glyph0-3" x="179.957465" y="85.291124"/>
  <use xlink:href="#glyph0-2" x="184.957465" y="85.291124"/>
  <use xlink:href="#glyph0-17" x="192.735243" y="85.291124"/>
  <use xlink:href="#glyph0-18" x="200.513021" y="85.291124"/>
  <use xlink:href="#glyph0-19" x="205.513021" y="85.291124"/>
  <use xlink:href="#glyph0-7" x="209.124132" y="85.291124"/>
  <use xlink:href="#glyph0-20" x="216.90191" y="85.291124"/>
  <use xlink:href="#glyph0-23" x="224.957465" y="85.291124"/>
</g>
<g style="fill:rgb(0%,0%,0%);fill-opacity:1;">
  <use xlink:href="#glyph0-17" x="53.566406" y="101.291124"/>
  <use xlink:href="#glyph0-5" x="61.344184" y="101.291124"/>
  <use xlink:href="#glyph0-18" x="65.510851" y="101.291124"/>
  <use xlink:href="#glyph0-7" x="70.510851" y="101.291124"/>
  <use xlink:href="#glyph0-22" x="78.288628" y="101.291124"/>
  <use xlink:href="#glyph0-2" x="85.233073" y="101.291124"/>
  <use xlink:href="#glyph0-20" x="93.010851" y="101.291124"/>
  <use xlink:href="#glyph0-5" x="101.066406" y="101.291124"/>
  <use xlink:href="#glyph0-3" x="105.233073" y="101.291124"/>
  <use xlink:href="#glyph0-2" x="110.233073" y="101.291124"/>
  <use xlink:href="#glyph0-24" x="118.010851" y="101.291124"/>
  <use xlink:href="#glyph0-3" x="126.066406" y="101.291124"/>
  <use xlink:href="#glyph0-2" x="131.066406" y="101.291124"/>
  <use xlink:href="#glyph0-6" x="138.844184" y="101.291124"/>
  <use xlink:href="#glyph0-2" x="145.510851" y="101.291124"/>
  <use xlink:href="#glyph0-20" x="153.288628" y="101.291124"/>
  <use xlink:href="#glyph0-18" x="161.344184" y="101.291124"/>
  <use xlink:href="#glyph0-6" x="166.344184" y="101.291124"/>
  <use xlink:href="#glyph0-5" x="173.010851" y="101.291124"/>
  <use xlink:href="#glyph0-25" x="177.177517" y="101.291124"/>
  <use xlink:href="#glyph0-7" x="189.677517" y="101.291124"/>
  <use xlink:href="#glyph0-3" x="197.455295" y="101.291124"/>
  <use xlink:href="#glyph0-2" x="202.455295" y="101.291124"/>
  <use xlink:href="#glyph0-5" x="210.233073" y="101.291124"/>
  <use xlink:href="#glyph0-9" x="214.39974" y="101.291124"/>
  <use xlink:href="#glyph0-16" x="221.344184" y="101.291124"/>
  <use xlink:href="#glyph0-17" x="229.39974" y="101.291124"/>
  <use xlink:href="#glyph0-3" x="237.177517" y="101.291124"/>
  <use xlink:href="#glyph0-1" x="241.344184" y="101.291124"/>
</g>
<g style="fill:rgb(0%,0%,0%);fill-opacity:1;">
  <use xlink:href="#glyph0-18" x="72.589844" y="133.291124"/>
  <use xlink:href="#glyph0-16" x="77.589844" y="133.291124"/>
  <use xlink:href="#glyph0-2" x="85.645399" y="133.291124"/>
  <use xlink:href="#glyph0-5" x="93.423177" y="133.291124"/>
  <use xlink:href="#glyph0-7" x="97.589844" y="133.291124"/>
  <use xlink:href="#glyph0-3" x="105.367622" y="133.291124"/>
  <use xlink:href="#glyph0-19" x="110.645399" y="133.291124"/>
  <use xlink:href="#glyph0-26" x="114.25651" y="133.291124"/>
  <use xlink:href="#glyph0-19" x="122.312066" y="133.291124"/>
  <use xlink:href="#glyph0-20" x="125.923177" y="133.291124"/>
  <use xlink:href="#glyph0-17" x="133.978733" y="133.291124"/>
  <use xlink:href="#glyph0-4" x="141.75651" y="133.291124"/>
  <use xlink:href="#glyph0-5" x="145.367622" y="133.291124"/>
  <use xlink:href="#glyph0-6" x="149.534288" y="133.291124"/>
  <use xlink:href="#glyph0-7" x="156.200955" y="133.291124"/>
  <use xlink:href="#glyph0-8" x="163.978733" y="133.291124"/>
  <use xlink:href="#glyph0-3" x="172.034288" y="133.291124"/>
  <use xlink:href="#glyph0-9" x="177.034288" y="133.291124"/>
  <use xlink:href="#glyph0-2" x="183.978733" y="133.291124"/>
  <use xlink:href="#glyph0-5" x="191.75651" y="133.291124"/>
  <use xlink:href="#glyph0-9" x="195.923177" y="133.291124"/>
  <use xlink:href="#glyph0-7" x="202.867622" y="133.291124"/>
  <use xlink:href="#glyph0-27" x="210.645399" y="133.291124"/>
  <use xlink:href="#glyph0-2" x="218.700955" y="133.291124"/>
</g>
<g style="fill:rgb(0%,0%,0%);fill-opacity:1;">
  <use xlink:href="#glyph0-17" x="69.816406" y="149.291124"/>
  <use xlink:href="#glyph0-20" x="77.594184" y="149.291124"/>
  <use xlink:href="#glyph0-27" x="85.64974" y="149.291124"/>
  <use xlink:href="#glyph0-5" x="93.705295" y="149.291124"/>
  <use xlink:href="#glyph0-18" x="97.871962" y="149.291124"/>
  <use xlink:href="#glyph0-16" x="102.871962" y="149.291124"/>
  <use xlink:href="#glyph0-2" x="110.927517" y="149.291124"/>
  <use xlink:href="#glyph0-5" x="118.705295" y="149.291124"/>
  <use xlink:href="#glyph0-28" x="122.871962" y="149.291124"/>
  <use xlink:href="#glyph0-21" x="126.483073" y="149.291124"/>
  <use xlink:href="#glyph0-17" x="134.538628" y="149.291124"/>
  <use xlink:href="#glyph0-18" x="142.316406" y="149.291124"/>
  <use xlink:href="#glyph0-5" x="147.316406" y="149.291124"/>
  <use xlink:href="#glyph0-18" x="151.483073" y="149.291124"/>
  <use xlink:href="#glyph0-7" x="156.483073" y="149.291124"/>
  <use xlink:href="#glyph0-22" x="164.260851" y="149.291124"/>
  <use xlink:href="#glyph0-2" x="171.205295" y="149.291124"/>
  <use xlink:href="#glyph0-20" x="178.983073" y="149.291124"/>
  <use xlink:href="#glyph0-5" x="187.038628" y="149.291124"/>
  <use xlink:href="#glyph0-9" x="191.205295" y="149.291124"/>
  <use xlink:href="#glyph0-16" x="198.14974" y="149.291124"/>
  <use xlink:href="#glyph0-17" x="206.205295" y="149.291124"/>
  <use xlink:href="#glyph0-19" x="213.983073" y="149.291124"/>
  <use xlink:href="#glyph0-20" x="217.594184" y="149.291124"/>
  <use xlink:href="#glyph0-28" x="225.64974" y="149.291124"/>
</g>
<g style="fill:rgb(0%,0%,0%);fill-opacity:1;">
  <use xlink:href="#glyph0-17" x="100.226563" y="165.291124"/>
  <use xlink:href="#glyph0-3" x="108.00434" y="165.291124"/>
  <use xlink:href="#glyph0-2" x="113.00434" y="165.291124"/>
  <use xlink:href="#glyph0-5" x="120.782118" y="165.291124"/>
  <use xlink:href="#glyph0-2" x="124.948785" y="165.291124"/>
  <use xlink:href="#glyph0-29" x="132.726562" y="165.291124"/>
  <use xlink:href="#glyph0-8" x="140.782118" y="165.291124"/>
  <use xlink:href="#glyph0-19" x="148.837674" y="165.291124"/>
  <use xlink:href="#glyph0-30" x="152.448785" y="165.291124"/>
  <use xlink:href="#glyph0-17" x="159.948785" y="165.291124"/>
  <use xlink:href="#glyph0-4" x="167.726562" y="165.291124"/>
  <use xlink:href="#glyph0-2" x="171.337674" y="165.291124"/>
  <use xlink:href="#glyph0-20" x="179.115451" y="165.291124"/>
  <use xlink:href="#glyph0-18" x="187.171007" y="165.291124"/>
  <use xlink:href="#glyph0-6" x="192.171007" y="165.291124"/>
</g>
<g style="fill:rgb(0%,0%,0%);fill-opacity:1;">
  <use xlink:href="#glyph0-18" x="24.953125" y="197.291124"/>
  <use xlink:href="#glyph0-16" x="29.953125" y="197.291124"/>
  <use xlink:href="#glyph0-2" x="38.008681" y="197.291124"/>
  <use xlink:href="#glyph0-5" x="45.786458" y="197.291124"/>
  <use xlink:href="#glyph0-18" x="49.953125" y="197.291124"/>
  <use xlink:href="#glyph0-7" x="54.953125" y="197.291124"/>
  <use xlink:href="#glyph0-22" x="62.730903" y="197.291124"/>
  <use xlink:href="#glyph0-2" x="69.675347" y="197.291124"/>
  <use xlink:href="#glyph0-20" x="77.453125" y="197.291124"/>
  <use xlink:href="#glyph0-6" x="85.508681" y="197.291124"/>
  <use xlink:href="#glyph0-5" x="92.175347" y="197.291124"/>
  <use xlink:href="#glyph0-17" x="96.342014" y="197.291124"/>
  <use xlink:href="#glyph0-3" x="104.119792" y="197.291124"/>
  <use xlink:href="#glyph0-2" x="109.119792" y="197.291124"/>
  <use xlink:href="#glyph0-5" x="116.897569" y="197.291124"/>
  <use xlink:href="#glyph0-9" x="121.064236" y="197.291124"/>
  <use xlink:href="#glyph0-16" x="128.008681" y="197.291124"/>
  <use xlink:href="#glyph0-17" x="136.064236" y="197.291124"/>
  <use xlink:href="#glyph0-3" x="143.842014" y="197.291124"/>
  <use xlink:href="#glyph0-17" x="149.119792" y="197.291124"/>
  <use xlink:href="#glyph0-9" x="156.897569" y="197.291124"/>
  <use xlink:href="#glyph0-18" x="163.842014" y="197.291124"/>
  <use xlink:href="#glyph0-2" x="168.842014" y="197.291124"/>
  <use xlink:href="#glyph0-3" x="176.619792" y="197.291124"/>
  <use xlink:href="#glyph0-31" x="181.064236" y="197.291124"/>
  <use xlink:href="#glyph0-26" x="185.786458" y="197.291124"/>
  <use xlink:href="#glyph0-3" x="193.842014" y="197.291124"/>
  <use xlink:href="#glyph0-7" x="198.842014" y="197.291124"/>
  <use xlink:href="#glyph0-8" x="206.619792" y="197.291124"/>
  <use xlink:href="#glyph0-24" x="214.675347" y="197.291124"/>
  <use xlink:href="#glyph0-5" x="222.730903" y="197.291124"/>
  <use xlink:href="#glyph0-16" x="226.897569" y="197.291124"/>
  <use xlink:href="#glyph0-7" x="234.953125" y="197.291124"/>
  <use xlink:href="#glyph0-4" x="242.730903" y="197.291124"/>
  <use xlink:href="#glyph0-27" x="246.342014" y="197.291124"/>
  <use xlink:href="#glyph0-2" x="254.397569" y="197.291124"/>
  <use xlink:href="#glyph0-3" x="262.175347" y="197.291124"/>
  <use xlink:href="#glyph0-6" x="267.453125" y="197.291124"/>
</g>
<g style="fill:rgb(0%,0%,0%);fill-opacity:1;">
  <use xlink:href="#glyph0-32" x="34.816406" y="229.291124"/>
  <use xlink:href="#glyph0-16" x="42.594184" y="229.291124"/>
  <use xlink:href="#glyph0-2" x="50.64974" y="229.291124"/>
  <use xlink:href="#glyph0-5" x="58.427517" y="229.291124"/>
  <use xlink:href="#glyph0-18" x="62.594184" y="229.291124"/>
  <use xlink:href="#glyph0-7" x="67.594184" y="229.291124"/>
  <use xlink:href="#glyph0-22" x="75.371962" y="229.291124"/>
  <use xlink:href="#glyph0-2" x="82.316406" y="229.291124"/>
  <use xlink:href="#glyph0-20" x="90.094184" y="229.291124"/>
  <use xlink:href="#glyph0-6" x="98.14974" y="229.291124"/>
  <use xlink:href="#glyph0-5" x="104.816406" y="229.291124"/>
  <use xlink:href="#glyph0-27" x="108.983073" y="229.291124"/>
  <use xlink:href="#glyph0-7" x="117.038628" y="229.291124"/>
  <use xlink:href="#glyph0-20" x="124.816406" y="229.291124"/>
  <use xlink:href="#glyph0-28" x="132.871962" y="229.291124"/>
  <use xlink:href="#glyph0-18" x="136.483073" y="229.291124"/>
  <use xlink:href="#glyph0-5" x="141.483073" y="229.291124"/>
  <use xlink:href="#glyph0-16" x="145.64974" y="229.291124"/>
  <use xlink:href="#glyph0-17" x="153.705295" y="229.291124"/>
  <use xlink:href="#glyph0-30" x="161.483073" y="229.291124"/>
  <use xlink:href="#glyph0-2" x="168.983073" y="229.291124"/>
  <use xlink:href="#glyph0-5" x="176.760851" y="229.291124"/>
  <use xlink:href="#glyph0-17" x="180.927517" y="229.291124"/>
  <use xlink:href="#glyph0-20" x="188.705295" y="229.291124"/>
  <use xlink:href="#glyph0-33" x="196.760851" y="229.291124"/>
  <use xlink:href="#glyph0-5" x="204.260851" y="229.291124"/>
  <use xlink:href="#glyph0-25" x="208.427517" y="229.291124"/>
  <use xlink:href="#glyph0-2" x="220.927517" y="229.291124"/>
  <use xlink:href="#glyph0-17" x="228.705295" y="229.291124"/>
  <use xlink:href="#glyph0-20" x="236.483073" y="229.291124"/>
  <use xlink:href="#glyph0-19" x="244.538628" y="229.291124"/>
  <use xlink:href="#glyph0-20" x="248.14974" y="229.291124"/>
  <use xlink:href="#glyph0-26" x="256.205295" y="229.291124"/>
</g>
<g style="fill:rgb(0%,0%,0%);fill-opacity:1;">
  <use xlink:href="#glyph0-17" x="43.273438" y="245.291124"/>
  <use xlink:href="#glyph0-18" x="51.051215" y="245.291124"/>
  <use xlink:href="#glyph0-5" x="56.051215" y="245.291124"/>
  <use xlink:href="#glyph0-18" x="60.217882" y="245.291124"/>
  <use xlink:href="#glyph0-16" x="65.217882" y="245.291124"/>
  <use xlink:href="#glyph0-19" x="73.273438" y="245.291124"/>
  <use xlink:href="#glyph0-6" x="76.884549" y="245.291124"/>
  <use xlink:href="#glyph0-5" x="83.551215" y="245.291124"/>
  <use xlink:href="#glyph0-24" x="87.717882" y="245.291124"/>
  <use xlink:href="#glyph0-7" x="95.773438" y="245.291124"/>
  <use xlink:href="#glyph0-19" x="103.551215" y="245.291124"/>
  <use xlink:href="#glyph0-20" x="107.162326" y="245.291124"/>
  <use xlink:href="#glyph0-18" x="115.217882" y="245.291124"/>
  <use xlink:href="#glyph0-34" x="120.217882" y="245.291124"/>
  <use xlink:href="#glyph0-5" x="124.384549" y="245.291124"/>
  <use xlink:href="#glyph0-35" x="128.551215" y="245.291124"/>
  <use xlink:href="#glyph0-2" x="136.606771" y="245.291124"/>
  <use xlink:href="#glyph0-9" x="144.384549" y="245.291124"/>
  <use xlink:href="#glyph0-17" x="151.328993" y="245.291124"/>
  <use xlink:href="#glyph0-8" x="159.106771" y="245.291124"/>
  <use xlink:href="#glyph0-6" x="167.162326" y="245.291124"/>
  <use xlink:href="#glyph0-2" x="173.828993" y="245.291124"/>
  <use xlink:href="#glyph0-5" x="181.606771" y="245.291124"/>
  <use xlink:href="#glyph0-19" x="185.773438" y="245.291124"/>
  <use xlink:href="#glyph0-20" x="189.384549" y="245.291124"/>
  <use xlink:href="#glyph0-5" x="197.440104" y="245.291124"/>
  <use xlink:href="#glyph0-27" x="201.606771" y="245.291124"/>
  <use xlink:href="#glyph0-19" x="209.662326" y="245.291124"/>
  <use xlink:href="#glyph0-36" x="213.273438" y="245.291124"/>
  <use xlink:href="#glyph0-2" x="222.162326" y="245.291124"/>
  <use xlink:href="#glyph0-3" x="229.940104" y="245.291124"/>
  <use xlink:href="#glyph0-2" x="234.940104" y="245.291124"/>
  <use xlink:href="#glyph0-20" x="242.717882" y="245.291124"/>
  <use xlink:href="#glyph0-18" x="250.773438" y="245.291124"/>
</g>
<g style="fill:rgb(0%,0%,0%);fill-opacity:1;">
  <use xlink:href="#glyph0-2" x="26.066406" y="261.291124"/>
  <use xlink:href="#glyph0-20" x="33.844184" y="261.291124"/>
  <use xlink:href="#glyph0-30" x="41.89974" y="261.291124"/>
  <use xlink:href="#glyph0-19" x="49.39974" y="261.291124"/>
  <use xlink:href="#glyph0-3" x="53.010851" y="261.291124"/>
  <use xlink:href="#glyph0-7" x="58.010851" y="261.291124"/>
  <use xlink:href="#glyph0-20" x="65.788628" y="261.291124"/>
  <use xlink:href="#glyph0-25" x="73.844184" y="261.291124"/>
  <use xlink:href="#glyph0-2" x="86.344184" y="261.291124"/>
  <use xlink:href="#glyph0-20" x="94.121962" y="261.291124"/>
  <use xlink:href="#glyph0-18" x="102.177517" y="261.291124"/>
  <use xlink:href="#glyph0-5" x="107.177517" y="261.291124"/>
  <use xlink:href="#glyph0-18" x="111.344184" y="261.291124"/>
  <use xlink:href="#glyph0-16" x="116.344184" y="261.291124"/>
  <use xlink:href="#glyph0-2" x="124.39974" y="261.291124"/>
  <use xlink:href="#glyph0-5" x="132.177517" y="261.291124"/>
  <use xlink:href="#glyph0-6" x="136.344184" y="261.291124"/>
  <use xlink:href="#glyph0-17" x="143.010851" y="261.291124"/>
  <use xlink:href="#glyph0-25" x="150.788628" y="261.291124"/>
  <use xlink:href="#glyph0-2" x="163.288628" y="261.291124"/>
  <use xlink:href="#glyph0-5" x="171.066406" y="261.291124"/>
  <use xlink:href="#glyph0-18" x="175.233073" y="261.291124"/>
  <use xlink:href="#glyph0-7" x="180.233073" y="261.291124"/>
  <use xlink:href="#glyph0-22" x="188.010851" y="261.291124"/>
  <use xlink:href="#glyph0-2" x="194.955295" y="261.291124"/>
  <use xlink:href="#glyph0-20" x="202.733073" y="261.291124"/>
  <use xlink:href="#glyph0-5" x="210.788628" y="261.291124"/>
  <use xlink:href="#glyph0-9" x="214.955295" y="261.291124"/>
  <use xlink:href="#glyph0-17" x="221.89974" y="261.291124"/>
  <use xlink:href="#glyph0-20" x="229.677517" y="261.291124"/>
  <use xlink:href="#glyph0-5" x="237.733073" y="261.291124"/>
  <use xlink:href="#glyph0-16" x="241.89974" y="261.291124"/>
  <use xlink:href="#glyph0-17" x="249.955295" y="261.291124"/>
  <use xlink:href="#glyph0-30" x="257.733073" y="261.291124"/>
  <use xlink:href="#glyph0-2" x="265.233073" y="261.291124"/>
</g>
<g style="fill:rgb(0%,0%,0%);fill-opacity:1;">
  <use xlink:href="#glyph0-17" x="62.179688" y="277.291124"/>
  <use xlink:href="#glyph0-5" x="69.957465" y="277.291124"/>
  <use xlink:href="#glyph0-18" x="74.124132" y="277.291124"/>
  <use xlink:href="#glyph0-7" x="79.124132" y="277.291124"/>
  <use xlink:href="#glyph0-18" x="86.90191" y="277.291124"/>
  <use xlink:href="#glyph0-17" x="91.90191" y="277.291124"/>
  <use xlink:href="#glyph0-4" x="99.679688" y="277.291124"/>
  <use xlink:href="#glyph0-4" x="103.290799" y="277.291124"/>
  <use xlink:href="#glyph0-33" x="106.90191" y="277.291124"/>
  <use xlink:href="#glyph0-5" x="114.40191" y="277.291124"/>
  <use xlink:href="#glyph0-27" x="118.568576" y="277.291124"/>
  <use xlink:href="#glyph0-19" x="126.624132" y="277.291124"/>
  <use xlink:href="#glyph0-36" x="130.235243" y="277.291124"/>
  <use xlink:href="#glyph0-2" x="139.124132" y="277.291124"/>
  <use xlink:href="#glyph0-3" x="146.90191" y="277.291124"/>
  <use xlink:href="#glyph0-2" x="151.90191" y="277.291124"/>
  <use xlink:href="#glyph0-20" x="159.679688" y="277.291124"/>
  <use xlink:href="#glyph0-18" x="167.735243" y="277.291124"/>
  <use xlink:href="#glyph0-5" x="172.735243" y="277.291124"/>
  <use xlink:href="#glyph0-25" x="176.90191" y="277.291124"/>
  <use xlink:href="#glyph0-2" x="189.40191" y="277.291124"/>
  <use xlink:href="#glyph0-17" x="197.179688" y="277.291124"/>
  <use xlink:href="#glyph0-20" x="204.957465" y="277.291124"/>
  <use xlink:href="#glyph0-19" x="213.013021" y="277.291124"/>
  <use xlink:href="#glyph0-20" x="216.624132" y="277.291124"/>
  <use xlink:href="#glyph0-26" x="224.679688" y="277.291124"/>
  <use xlink:href="#glyph0-1" x="232.735243" y="277.291124"/>
</g>
<g style="fill:rgb(0%,0%,0%);fill-opacity:1;">
  <use xlink:href="#glyph0-37" x="71.613281" y="309.291124"/>
  <use xlink:href="#glyph0-20" x="77.446615" y="309.291124"/>
  <use xlink:href="#glyph0-17" x="85.50217" y="309.291124"/>
  <use xlink:href="#glyph0-25" x="93.279948" y="309.291124"/>
  <use xlink:href="#glyph0-2" x="105.779948" y="309.291124"/>
  <use xlink:href="#glyph0-37" x="113.557726" y="309.291124"/>
  <use xlink:href="#glyph0-5" x="119.391059" y="309.291124"/>
  <use xlink:href="#glyph0-9" x="123.557726" y="309.291124"/>
  <use xlink:href="#glyph0-17" x="130.50217" y="309.291124"/>
  <use xlink:href="#glyph0-20" x="138.279948" y="309.291124"/>
  <use xlink:href="#glyph0-5" x="146.335503" y="309.291124"/>
  <use xlink:href="#glyph0-35" x="150.50217" y="309.291124"/>
  <use xlink:href="#glyph0-2" x="158.557726" y="309.291124"/>
  <use xlink:href="#glyph0-5" x="166.335503" y="309.291124"/>
  <use xlink:href="#glyph0-17" x="170.50217" y="309.291124"/>
  <use xlink:href="#glyph0-5" x="178.279948" y="309.291124"/>
  <use xlink:href="#glyph0-6" x="182.446615" y="309.291124"/>
  <use xlink:href="#glyph0-18" x="189.113281" y="309.291124"/>
  <use xlink:href="#glyph0-3" x="194.113281" y="309.291124"/>
  <use xlink:href="#glyph0-19" x="199.391059" y="309.291124"/>
  <use xlink:href="#glyph0-20" x="203.00217" y="309.291124"/>
  <use xlink:href="#glyph0-26" x="211.057726" y="309.291124"/>
  <use xlink:href="#glyph0-34" x="219.113281" y="309.291124"/>
  <use xlink:href="#glyph0-5" x="223.279948" y="309.291124"/>
</g>
<g style="fill:rgb(0%,0%,0%);fill-opacity:1;">
  <use xlink:href="#glyph0-17" x="15.089844" y="325.291124"/>
  <use xlink:href="#glyph0-5" x="22.867622" y="325.291124"/>
  <use xlink:href="#glyph0-25" x="27.034288" y="325.291124"/>
  <use xlink:href="#glyph0-17" x="39.534288" y="325.291124"/>
  <use xlink:href="#glyph0-24" x="47.312066" y="325.291124"/>
  <use xlink:href="#glyph0-5" x="55.367622" y="325.291124"/>
  <use xlink:href="#glyph0-22" x="59.534288" y="325.291124"/>
  <use xlink:href="#glyph0-2" x="66.478733" y="325.291124"/>
  <use xlink:href="#glyph0-33" x="74.25651" y="325.291124"/>
  <use xlink:href="#glyph0-34" x="81.75651" y="325.291124"/>
  <use xlink:href="#glyph0-5" x="85.923177" y="325.291124"/>
  <use xlink:href="#glyph0-7" x="90.089844" y="325.291124"/>
  <use xlink:href="#glyph0-3" x="97.867622" y="325.291124"/>
  <use xlink:href="#glyph0-5" x="103.145399" y="325.291124"/>
  <use xlink:href="#glyph0-17" x="107.312066" y="325.291124"/>
  <use xlink:href="#glyph0-5" x="115.089844" y="325.291124"/>
  <use xlink:href="#glyph0-35" x="119.25651" y="325.291124"/>
  <use xlink:href="#glyph0-19" x="127.312066" y="325.291124"/>
  <use xlink:href="#glyph0-20" x="130.923177" y="325.291124"/>
  <use xlink:href="#glyph0-17" x="138.978733" y="325.291124"/>
  <use xlink:href="#glyph0-3" x="146.75651" y="325.291124"/>
  <use xlink:href="#glyph0-33" x="152.034288" y="325.291124"/>
  <use xlink:href="#glyph0-5" x="159.534288" y="325.291124"/>
  <use xlink:href="#glyph0-18" x="163.700955" y="325.291124"/>
  <use xlink:href="#glyph0-7" x="168.700955" y="325.291124"/>
  <use xlink:href="#glyph0-7" x="176.478733" y="325.291124"/>
  <use xlink:href="#glyph0-23" x="184.25651" y="325.291124"/>
  <use xlink:href="#glyph0-5" x="188.700955" y="325.291124"/>
  <use xlink:href="#glyph0-38" x="192.867622" y="325.291124"/>
  <use xlink:href="#glyph0-38" x="203.700955" y="325.291124"/>
  <use xlink:href="#glyph0-37" x="214.534288" y="325.291124"/>
  <use xlink:href="#glyph0-20" x="220.367622" y="325.291124"/>
  <use xlink:href="#glyph0-17" x="228.423177" y="325.291124"/>
  <use xlink:href="#glyph0-25" x="236.200955" y="325.291124"/>
  <use xlink:href="#glyph0-2" x="248.700955" y="325.291124"/>
  <use xlink:href="#glyph0-37" x="256.478733" y="325.291124"/>
  <use xlink:href="#glyph0-39" x="262.312066" y="325.291124"/>
  <use xlink:href="#glyph0-39" x="273.145399" y="325.291124"/>
</g>
<path style="fill-rule:evenodd;fill:rgb(64.313728%,64.313728%,64.313728%);fill-opacity:1;stroke-width:0.1;stroke-linecap:butt;stroke-linejoin:miter;stroke:rgb(0%,0%,0%);stroke-opacity:1;stroke-miterlimit:10;" d="M 24.737745 27.546339 L 33.627784 27.546339 L 33.627784 29.446339 L 24.737745 29.446339 Z M 24.737745 27.546339 " transform="matrix(20,0,0,20,-56.465833,-365.876)"/>
<g style="fill:rgb(0%,0%,0%);fill-opacity:1;">
  <use xlink:href="#glyph0-21" x="449.550781" y="207.939562"/>
  <use xlink:href="#glyph0-17" x="457.606337" y="207.939562"/>
  <use xlink:href="#glyph0-18" x="465.384115" y="207.939562"/>
  <use xlink:href="#glyph0-5" x="470.384115" y="207.939562"/>
  <use xlink:href="#glyph0-18" x="474.550781" y="207.939562"/>
  <use xlink:href="#glyph0-7" x="479.550781" y="207.939562"/>
  <use xlink:href="#glyph0-22" x="487.328559" y="207.939562"/>
  <use xlink:href="#glyph0-2" x="494.273003" y="207.939562"/>
  <use xlink:href="#glyph0-20" x="502.050781" y="207.939562"/>
  <use xlink:href="#glyph0-5" x="510.106337" y="207.939562"/>
  <use xlink:href="#glyph0-9" x="514.273003" y="207.939562"/>
  <use xlink:href="#glyph0-16" x="521.217448" y="207.939562"/>
  <use xlink:href="#glyph0-17" x="529.273003" y="207.939562"/>
  <use xlink:href="#glyph0-19" x="537.050781" y="207.939562"/>
  <use xlink:href="#glyph0-20" x="540.661892" y="207.939562"/>
  <use xlink:href="#glyph0-5" x="548.717448" y="207.939562"/>
  <use xlink:href="#glyph0-9" x="552.884115" y="207.939562"/>
  <use xlink:href="#glyph0-3" x="559.828559" y="207.939562"/>
  <use xlink:href="#glyph0-2" x="564.828559" y="207.939562"/>
  <use xlink:href="#glyph0-17" x="572.606337" y="207.939562"/>
  <use xlink:href="#glyph0-18" x="580.384115" y="207.939562"/>
  <use xlink:href="#glyph0-19" x="585.384115" y="207.939562"/>
  <use xlink:href="#glyph0-7" x="588.995226" y="207.939562"/>
  <use xlink:href="#glyph0-20" x="596.773003" y="207.939562"/>
</g>
<path style="fill:none;stroke-width:0.1;stroke-linecap:butt;stroke-linejoin:miter;stroke:rgb(0%,0%,0%);stroke-opacity:1;stroke-miterlimit:10;" d="M 17.724073 28.416066 L 24.200635 28.461378 " transform="matrix(20,0,0,20,-56.465833,-365.876)"/>
<path style="fill-rule:evenodd;fill:rgb(0%,0%,0%);fill-opacity:1;stroke-width:0.1;stroke-linecap:butt;stroke-linejoin:miter;stroke:rgb(0%,0%,0%);stroke-opacity:1;stroke-miterlimit:10;" d="M 24.575635 28.464113 L 24.073878 28.710597 L 24.200635 28.461378 L 24.077393 28.210597 Z M 24.575635 28.464113 " transform="matrix(20,0,0,20,-56.465833,-365.876)"/>
<path style="fill-rule:evenodd;fill:rgb(64.313728%,64.313728%,64.313728%);fill-opacity:1;stroke-width:0.1;stroke-linecap:butt;stroke-linejoin:miter;stroke:rgb(0%,0%,0%);stroke-opacity:1;stroke-miterlimit:10;" d="M 22.32251 32.119581 L 36.07251 32.119581 L 36.07251 35.619581 L 22.32251 35.619581 Z M 22.32251 32.119581 " transform="matrix(20,0,0,20,-56.465833,-365.876)"/>
<g style="fill:rgb(0%,0%,0%);fill-opacity:1;">
  <use xlink:href="#glyph0-2" x="401.527344" y="299.404405"/>
  <use xlink:href="#glyph0-25" x="409.305122" y="299.404405"/>
  <use xlink:href="#glyph0-35" x="421.805122" y="299.404405"/>
  <use xlink:href="#glyph0-2" x="429.860677" y="299.404405"/>
  <use xlink:href="#glyph0-27" x="437.638455" y="299.404405"/>
  <use xlink:href="#glyph0-27" x="445.69401" y="299.404405"/>
  <use xlink:href="#glyph0-2" x="453.749566" y="299.404405"/>
  <use xlink:href="#glyph0-27" x="461.527344" y="299.404405"/>
  <use xlink:href="#glyph0-5" x="469.582899" y="299.404405"/>
  <use xlink:href="#glyph0-2" x="473.749566" y="299.404405"/>
  <use xlink:href="#glyph0-40" x="481.527344" y="299.404405"/>
  <use xlink:href="#glyph0-2" x="488.749566" y="299.404405"/>
  <use xlink:href="#glyph0-9" x="496.527344" y="299.404405"/>
  <use xlink:href="#glyph0-8" x="503.471788" y="299.404405"/>
  <use xlink:href="#glyph0-18" x="511.527344" y="299.404405"/>
  <use xlink:href="#glyph0-17" x="516.527344" y="299.404405"/>
  <use xlink:href="#glyph0-35" x="524.305122" y="299.404405"/>
  <use xlink:href="#glyph0-4" x="532.360677" y="299.404405"/>
  <use xlink:href="#glyph0-2" x="535.971788" y="299.404405"/>
  <use xlink:href="#glyph0-5" x="543.749566" y="299.404405"/>
  <use xlink:href="#glyph0-7" x="547.916233" y="299.404405"/>
  <use xlink:href="#glyph0-35" x="555.69401" y="299.404405"/>
  <use xlink:href="#glyph0-41" x="563.749566" y="299.404405"/>
  <use xlink:href="#glyph0-2" x="567.360677" y="299.404405"/>
  <use xlink:href="#glyph0-9" x="575.138455" y="299.404405"/>
  <use xlink:href="#glyph0-18" x="582.082899" y="299.404405"/>
  <use xlink:href="#glyph0-6" x="587.082899" y="299.404405"/>
  <use xlink:href="#glyph0-5" x="593.749566" y="299.404405"/>
  <use xlink:href="#glyph0-35" x="597.916233" y="299.404405"/>
  <use xlink:href="#glyph0-8" x="605.971788" y="299.404405"/>
  <use xlink:href="#glyph0-19" x="614.027344" y="299.404405"/>
  <use xlink:href="#glyph0-4" x="617.638455" y="299.404405"/>
  <use xlink:href="#glyph0-27" x="621.249566" y="299.404405"/>
  <use xlink:href="#glyph0-19" x="629.305122" y="299.404405"/>
  <use xlink:href="#glyph0-20" x="632.916233" y="299.404405"/>
  <use xlink:href="#glyph0-26" x="640.971788" y="299.404405"/>
  <use xlink:href="#glyph0-23" x="649.027344" y="299.404405"/>
</g>
<g style="fill:rgb(0%,0%,0%);fill-opacity:1;">
  <use xlink:href="#glyph0-6" x="451.234375" y="315.404405"/>
  <use xlink:href="#glyph0-2" x="457.901042" y="315.404405"/>
  <use xlink:href="#glyph0-24" x="465.678819" y="315.404405"/>
  <use xlink:href="#glyph0-17" x="473.734375" y="315.404405"/>
  <use xlink:href="#glyph0-3" x="481.512153" y="315.404405"/>
  <use xlink:href="#glyph0-17" x="486.789931" y="315.404405"/>
  <use xlink:href="#glyph0-18" x="494.567708" y="315.404405"/>
  <use xlink:href="#glyph0-2" x="499.567708" y="315.404405"/>
  <use xlink:href="#glyph0-27" x="507.345486" y="315.404405"/>
  <use xlink:href="#glyph0-5" x="515.401042" y="315.404405"/>
  <use xlink:href="#glyph0-20" x="519.567708" y="315.404405"/>
  <use xlink:href="#glyph0-17" x="527.623264" y="315.404405"/>
  <use xlink:href="#glyph0-25" x="535.401042" y="315.404405"/>
  <use xlink:href="#glyph0-2" x="547.901042" y="315.404405"/>
  <use xlink:href="#glyph0-6" x="555.678819" y="315.404405"/>
  <use xlink:href="#glyph0-24" x="562.345486" y="315.404405"/>
  <use xlink:href="#glyph0-17" x="570.401042" y="315.404405"/>
  <use xlink:href="#glyph0-9" x="578.178819" y="315.404405"/>
  <use xlink:href="#glyph0-2" x="585.123264" y="315.404405"/>
  <use xlink:href="#glyph0-6" x="592.901042" y="315.404405"/>
  <use xlink:href="#glyph0-34" x="599.567708" y="315.404405"/>
</g>
<g style="fill:rgb(0%,0%,0%);fill-opacity:1;">
  <use xlink:href="#glyph0-6" x="462.640625" y="331.404405"/>
  <use xlink:href="#glyph0-18" x="469.307292" y="331.404405"/>
  <use xlink:href="#glyph0-17" x="474.307292" y="331.404405"/>
  <use xlink:href="#glyph0-18" x="482.085069" y="331.404405"/>
  <use xlink:href="#glyph0-2" x="487.085069" y="331.404405"/>
  <use xlink:href="#glyph0-5" x="494.862847" y="331.404405"/>
  <use xlink:href="#glyph0-3" x="499.029514" y="331.404405"/>
  <use xlink:href="#glyph0-2" x="504.029514" y="331.404405"/>
  <use xlink:href="#glyph0-24" x="511.807292" y="331.404405"/>
  <use xlink:href="#glyph0-3" x="519.862847" y="331.404405"/>
  <use xlink:href="#glyph0-2" x="524.862847" y="331.404405"/>
  <use xlink:href="#glyph0-6" x="532.640625" y="331.404405"/>
  <use xlink:href="#glyph0-2" x="539.307292" y="331.404405"/>
  <use xlink:href="#glyph0-20" x="547.085069" y="331.404405"/>
  <use xlink:href="#glyph0-18" x="555.140625" y="331.404405"/>
  <use xlink:href="#glyph0-17" x="560.140625" y="331.404405"/>
  <use xlink:href="#glyph0-18" x="567.918403" y="331.404405"/>
  <use xlink:href="#glyph0-19" x="572.918403" y="331.404405"/>
  <use xlink:href="#glyph0-7" x="576.529514" y="331.404405"/>
  <use xlink:href="#glyph0-20" x="584.307292" y="331.404405"/>
</g>
<path style="fill-rule:evenodd;fill:rgb(64.313728%,64.313728%,64.313728%);fill-opacity:1;stroke-width:0.1;stroke-linecap:butt;stroke-linejoin:miter;stroke:rgb(0%,0%,0%);stroke-opacity:1;stroke-miterlimit:10;" d="M 22.568995 41.653761 L 26.301417 41.653761 L 26.301417 44.353761 L 22.568995 44.353761 Z M 22.568995 41.653761 " transform="matrix(20,0,0,20,-56.465833,-365.876)"/>
<g style="fill:rgb(0%,0%,0%);fill-opacity:1;">
  <use xlink:href="#glyph0-42" x="405.988281" y="490.087999"/>
  <use xlink:href="#glyph0-3" x="413.488281" y="490.087999"/>
  <use xlink:href="#glyph0-7" x="418.488281" y="490.087999"/>
  <use xlink:href="#glyph0-9" x="426.266059" y="490.087999"/>
  <use xlink:href="#glyph0-2" x="433.210503" y="490.087999"/>
  <use xlink:href="#glyph0-6" x="440.988281" y="490.087999"/>
  <use xlink:href="#glyph0-6" x="447.654948" y="490.087999"/>
  <use xlink:href="#glyph0-5" x="454.321615" y="490.087999"/>
</g>
<g style="fill:rgb(0%,0%,0%);fill-opacity:1;">
  <use xlink:href="#glyph0-18" x="416.144531" y="506.087999"/>
  <use xlink:href="#glyph0-17" x="421.144531" y="506.087999"/>
  <use xlink:href="#glyph0-35" x="428.922309" y="506.087999"/>
  <use xlink:href="#glyph0-4" x="436.977865" y="506.087999"/>
  <use xlink:href="#glyph0-2" x="440.588976" y="506.087999"/>
</g>
<path style="fill-rule:evenodd;fill:rgb(64.313728%,64.313728%,64.313728%);fill-opacity:1;stroke-width:0.1;stroke-linecap:butt;stroke-linejoin:miter;stroke:rgb(0%,0%,0%);stroke-opacity:1;stroke-miterlimit:10;" d="M 22.660206 45.396339 L 26.392628 45.396339 L 26.392628 48.096339 L 22.660206 48.096339 Z M 22.660206 45.396339 " transform="matrix(20,0,0,20,-56.465833,-365.876)"/>
<g style="fill:rgb(0%,0%,0%);fill-opacity:1;">
  <use xlink:href="#glyph0-43" x="411.71875" y="564.935655"/>
  <use xlink:href="#glyph0-18" x="420.329861" y="564.935655"/>
  <use xlink:href="#glyph0-7" x="425.329861" y="564.935655"/>
  <use xlink:href="#glyph0-25" x="433.107639" y="564.935655"/>
  <use xlink:href="#glyph0-6" x="445.607639" y="564.935655"/>
  <use xlink:href="#glyph0-5" x="452.274306" y="564.935655"/>
</g>
<g style="fill:rgb(0%,0%,0%);fill-opacity:1;">
  <use xlink:href="#glyph0-18" x="417.96875" y="580.935655"/>
  <use xlink:href="#glyph0-17" x="422.96875" y="580.935655"/>
  <use xlink:href="#glyph0-35" x="430.746528" y="580.935655"/>
  <use xlink:href="#glyph0-4" x="438.802083" y="580.935655"/>
  <use xlink:href="#glyph0-2" x="442.413194" y="580.935655"/>
</g>
<path style="fill-rule:evenodd;fill:rgb(64.313728%,64.313728%,64.313728%);fill-opacity:1;stroke-width:0.1;stroke-linecap:butt;stroke-linejoin:miter;stroke:rgb(0%,0%,0%);stroke-opacity:1;stroke-miterlimit:10;" d="M 27.300245 41.696339 L 33.752784 41.696339 L 33.752784 44.396339 L 27.300245 44.396339 Z M 27.300245 41.696339 " transform="matrix(20,0,0,20,-56.465833,-365.876)"/>
<g style="fill:rgb(0%,0%,0%);fill-opacity:1;">
  <use xlink:href="#glyph0-25" x="504.765625" y="490.935655"/>
  <use xlink:href="#glyph0-7" x="517.265625" y="490.935655"/>
  <use xlink:href="#glyph0-27" x="525.043403" y="490.935655"/>
  <use xlink:href="#glyph0-8" x="533.098958" y="490.935655"/>
  <use xlink:href="#glyph0-4" x="541.154514" y="490.935655"/>
  <use xlink:href="#glyph0-2" x="544.765625" y="490.935655"/>
  <use xlink:href="#glyph0-5" x="552.543403" y="490.935655"/>
  <use xlink:href="#glyph0-30" x="556.710069" y="490.935655"/>
  <use xlink:href="#glyph0-2" x="564.210069" y="490.935655"/>
  <use xlink:href="#glyph0-3" x="571.987847" y="490.935655"/>
  <use xlink:href="#glyph0-6" x="577.265625" y="490.935655"/>
  <use xlink:href="#glyph0-19" x="583.932292" y="490.935655"/>
  <use xlink:href="#glyph0-7" x="587.543403" y="490.935655"/>
  <use xlink:href="#glyph0-20" x="595.321181" y="490.935655"/>
</g>
<g style="fill:rgb(0%,0%,0%);fill-opacity:1;">
  <use xlink:href="#glyph0-18" x="504.765625" y="506.935655"/>
  <use xlink:href="#glyph0-3" x="509.765625" y="506.935655"/>
  <use xlink:href="#glyph0-17" x="515.043403" y="506.935655"/>
  <use xlink:href="#glyph0-20" x="522.821181" y="506.935655"/>
  <use xlink:href="#glyph0-6" x="530.876736" y="506.935655"/>
  <use xlink:href="#glyph0-4" x="537.543403" y="506.935655"/>
  <use xlink:href="#glyph0-17" x="541.154514" y="506.935655"/>
  <use xlink:href="#glyph0-18" x="548.932292" y="506.935655"/>
  <use xlink:href="#glyph0-7" x="553.932292" y="506.935655"/>
  <use xlink:href="#glyph0-3" x="561.710069" y="506.935655"/>
  <use xlink:href="#glyph0-5" x="566.987847" y="506.935655"/>
  <use xlink:href="#glyph0-18" x="571.154514" y="506.935655"/>
  <use xlink:href="#glyph0-17" x="576.154514" y="506.935655"/>
  <use xlink:href="#glyph0-35" x="583.932292" y="506.935655"/>
  <use xlink:href="#glyph0-4" x="591.987847" y="506.935655"/>
  <use xlink:href="#glyph0-2" x="595.598958" y="506.935655"/>
</g>
<g style="fill:rgb(0%,0%,0%);fill-opacity:1;">
  <use xlink:href="#glyph0-15" x="481.238281" y="436.705187"/>
  <use xlink:href="#glyph0-7" x="490.12717" y="436.705187"/>
  <use xlink:href="#glyph0-27" x="497.904948" y="436.705187"/>
  <use xlink:href="#glyph0-2" x="505.960503" y="436.705187"/>
  <use xlink:href="#glyph0-5" x="513.738281" y="436.705187"/>
  <use xlink:href="#glyph0-2" x="517.904948" y="436.705187"/>
  <use xlink:href="#glyph0-40" x="525.682726" y="436.705187"/>
  <use xlink:href="#glyph0-2" x="532.904948" y="436.705187"/>
  <use xlink:href="#glyph0-9" x="540.682726" y="436.705187"/>
  <use xlink:href="#glyph0-8" x="547.62717" y="436.705187"/>
  <use xlink:href="#glyph0-18" x="555.682726" y="436.705187"/>
  <use xlink:href="#glyph0-19" x="560.682726" y="436.705187"/>
  <use xlink:href="#glyph0-7" x="564.293837" y="436.705187"/>
  <use xlink:href="#glyph0-20" x="572.071615" y="436.705187"/>
</g>
<path style="fill:none;stroke-width:0.1;stroke-linecap:butt;stroke-linejoin:miter;stroke:rgb(0%,0%,0%);stroke-opacity:1;stroke-miterlimit:10;" d="M 29.11294 20.306105 L 29.108253 22.821339 " transform="matrix(20,0,0,20,-56.465833,-365.876)"/>
<path style="fill-rule:evenodd;fill:rgb(0%,0%,0%);fill-opacity:1;stroke-width:0.1;stroke-linecap:butt;stroke-linejoin:miter;stroke:rgb(0%,0%,0%);stroke-opacity:1;stroke-miterlimit:10;" d="M 29.107471 23.196339 L 28.858448 22.695753 L 29.108253 22.821339 L 29.358448 22.69673 Z M 29.107471 23.196339 " transform="matrix(20,0,0,20,-56.465833,-365.876)"/>
<path style="fill:none;stroke-width:0.1;stroke-linecap:butt;stroke-linejoin:miter;stroke:rgb(0%,0%,0%);stroke-opacity:1;stroke-miterlimit:10;" d="M 29.123682 25.270167 L 29.155518 27.009816 " transform="matrix(20,0,0,20,-56.465833,-365.876)"/>
<path style="fill-rule:evenodd;fill:rgb(0%,0%,0%);fill-opacity:1;stroke-width:0.1;stroke-linecap:butt;stroke-linejoin:miter;stroke:rgb(0%,0%,0%);stroke-opacity:1;stroke-miterlimit:10;" d="M 29.162354 27.384816 L 28.903174 26.889503 L 29.155518 27.009816 L 29.403174 26.880323 Z M 29.162354 27.384816 " transform="matrix(20,0,0,20,-56.465833,-365.876)"/>
<path style="fill:none;stroke-width:0.1;stroke-linecap:butt;stroke-linejoin:miter;stroke:rgb(0%,0%,0%);stroke-opacity:1;stroke-miterlimit:10;" d="M 29.185401 29.49673 L 29.19126 31.582667 " transform="matrix(20,0,0,20,-56.465833,-365.876)"/>
<path style="fill-rule:evenodd;fill:rgb(0%,0%,0%);fill-opacity:1;stroke-width:0.1;stroke-linecap:butt;stroke-linejoin:miter;stroke:rgb(0%,0%,0%);stroke-opacity:1;stroke-miterlimit:10;" d="M 29.192237 31.957667 L 28.94087 31.458448 L 29.19126 31.582667 L 29.44087 31.457081 Z M 29.192237 31.957667 " transform="matrix(20,0,0,20,-56.465833,-365.876)"/>
<path style="fill:none;stroke-width:0.1;stroke-linecap:butt;stroke-linejoin:miter;stroke:rgb(0%,0%,0%);stroke-opacity:1;stroke-miterlimit:10;" d="M 29.189112 35.658448 L 29.176417 38.338527 " transform="matrix(20,0,0,20,-56.465833,-365.876)"/>
<path style="fill-rule:evenodd;fill:rgb(0%,0%,0%);fill-opacity:1;stroke-width:0.1;stroke-linecap:butt;stroke-linejoin:miter;stroke:rgb(0%,0%,0%);stroke-opacity:1;stroke-miterlimit:10;" d="M 29.174659 38.713527 L 28.927003 38.212355 L 29.176417 38.338527 L 29.427003 38.214698 Z M 29.174659 38.713527 " transform="matrix(20,0,0,20,-56.465833,-365.876)"/>
</g>
</svg>
